<?xml version="1.0" standalone="no"?>
<!DOCTYPE svg PUBLIC "-//W3C//DTD SVG 20010904//EN"
 "http://www.w3.org/TR/2001/REC-SVG-20010904/DTD/svg10.dtd">
<svg version="1.0" xmlns="http://www.w3.org/2000/svg"
 width="16px" height="16px" viewBox="0 0 1087.000000 1280.000000"
 preserveAspectRatio="xMidYMid meet">
<metadata>
Created by potrace 1.15, written by Peter Selinger 2001-2017
</metadata>
<g transform="translate(0.000000,1280.000000) scale(0.100000,-0.100000)"
fill="#808080" stroke="none">
<path d="M375 12790 c-115 -6 -168 -26 -234 -86 -43 -38 -86 -103 -59 -89 7 3
4 -1 -7 -10 -11 -9 -19 -19 -19 -23 1 -4 -2 -17 -7 -30 -5 -13 -9 -726 -9
-1623 l0 -1600 33 -52 c65 -100 159 -174 283 -220 l59 -22 4975 0 c2736 0
5023 2 5082 3 59 2 129 9 157 18 59 17 146 75 146 97 0 8 4 19 9 24 5 5 6 2 1
-6 -6 -10 -4 -12 4 -6 17 10 61 105 60 130 0 11 -6 2 -13 -20 -22 -69 -34 -85
-67 -85 -20 0 -47 -14 -81 -41 -59 -46 -158 -99 -185 -99 -10 1 -2 7 19 14 56
20 128 65 179 113 25 23 50 39 54 35 5 -4 5 -2 1 5 -3 6 7 31 22 55 16 24 40
70 53 103 l24 60 2 1485 c2 1457 2 1486 -17 1545 -39 116 -114 220 -201 279
-27 18 -46 35 -43 39 4 3 -2 7 -12 8 -52 6 -6781 8 -6794 2 -8 -3 -19 -5 -25
-4 -33 9 -795 9 -800 0 -4 -5 -11 -6 -17 -3 -18 11 -806 15 -813 4 -4 -6 -11
-7 -17 -4 -17 11 -797 14 -803 3 -4 -5 -11 -6 -17 -3 -5 3 -189 8 -409 10
-310 3 -399 1 -399 -9 0 -7 -3 -8 -8 -2 -4 6 -46 8 -107 5z m4205 -33 c0 -1
-91 -92 -202 -202 l-203 -200 200 203 c186 188 205 207 205 199z m1650 0 c0
-1 -93 -94 -207 -207 l-208 -205 205 208 c190 192 210 212 210 204z m-6011
-10 c-2 -2 -33 -30 -68 -63 -40 -37 -57 -49 -46 -31 16 26 100 97 113 97 3 0
3 -1 1 -3z m10121 0 c0 -1 -109 -110 -242 -242 l-243 -240 240 243 c223 225
245 247 245 239z m-1670 -20 c0 -1 -87 -88 -192 -192 l-193 -190 190 193 c176
178 195 197 195 189z m-6610 -20 c0 -1 -91 -92 -202 -202 l-203 -200 200 203
c186 188 205 207 205 199z m5730 -40 c0 -1 -75 -76 -167 -167 l-168 -165 165
168 c153 155 170 172 170 164z m-4970 -20 c0 -1 -71 -72 -157 -157 l-158 -155
155 158 c144 146 160 162 160 154z m4100 -20 c0 -1 -64 -65 -142 -142 l-143
-140 140 143 c130 132 145 147 145 139z m-3370 -80 c0 -1 -46 -47 -102 -102
l-103 -100 100 103 c93 95 105 107 105 99z m5740 -30 c0 -1 -37 -38 -82 -82
l-83 -80 80 83 c74 76 85 87 85 79z m-8280 -30 c0 -1 -145 -146 -322 -322
l-323 -320 320 323 c297 299 325 327 325 319z m4039 -86 c-19 -22 -38 -40 -44
-40 -5 -1 9 17 30 39 50 51 57 52 14 1z m5510 -255 c-160 -164 -323 -326 -328
-326 -3 0 68 74 159 165 91 91 167 165 169 165 2 0 2 -2 0 -4z m181 -649 c0
-1 -438 -439 -972 -972 l-973 -970 970 973 c533 534 971 972 972 972 2 0 3 -1
3 -3z m-9950 -60 c0 -1 -118 -119 -262 -262 l-263 -260 260 263 c241 243 265
267 265 259z m570 -250 c0 -1 -296 -297 -657 -657 l-658 -655 655 658 c609
611 660 661 660 654z m740 -90 c0 -1 -399 -400 -887 -887 -488 -487 -884 -880
-880 -875 9 13 1761 1765 1764 1765 2 0 3 -1 3 -3z m740 -80 c0 -1 -325 -326
-722 -722 l-723 -720 720 723 c396 397 721 722 722 722 2 0 3 -1 3 -3z m5990
-613 c-327 -327 -631 -627 -675 -666 -44 -40 221 231 590 600 368 369 671 669
674 666 3 -3 -262 -273 -589 -600z m-5230 543 c0 -1 -277 -279 -615 -617 -338
-338 -615 -611 -615 -605 0 11 1211 1225 1222 1225 5 0 8 -1 8 -3z m4940 0 c0
-1 -316 -317 -702 -702 l-703 -700 700 703 c651 653 705 706 705 699z m-4160
-40 c0 -1 -305 -306 -677 -677 l-678 -675 675 678 c627 629 680 681 680 674z
m3300 0 c0 -1 -289 -290 -642 -642 -353 -352 -605 -599 -558 -550 72 77 1191
1193 1198 1194 1 1 2 0 2 -2z m-2906 -429 c-221 -222 -432 -436 -470 -477 -38
-40 -139 -139 -224 -219 -85 -80 124 134 465 476 341 342 622 622 625 622 3 0
-176 -181 -396 -402z m2046 399 c0 -1 -294 -295 -652 -652 l-653 -650 650 653
c604 606 655 656 655 649z m-830 -10 c0 -1 -289 -290 -642 -642 l-643 -640
640 643 c595 597 645 646 645 639z m4560 -380 c0 -1 -199 -200 -442 -442
l-443 -440 440 443 c409 411 445 446 445 439z m80 -750 c0 -1 -138 -139 -307
-307 l-308 -305 305 308 c283 285 310 312 310 304z m-1180 -350 c0 -1 -39 -41
-87 -87 l-88 -85 85 88 c79 81 90 92 90 84z m-8250 -10 c0 -1 -64 -65 -142
-142 l-143 -140 140 143 c130 132 145 147 145 139z m7275 -147 c-82 -82 -152
-150 -155 -150 -2 0 63 68 145 150 82 83 152 150 155 150 2 0 -63 -67 -145
-150z m-5780 -10 c-82 -82 -152 -150 -155 -150 -2 0 63 68 145 150 82 83 152
150 155 150 2 0 -63 -67 -145 -150z m965 147 c0 -1 -28 -29 -62 -62 l-63 -60
60 63 c55 58 65 67 65 59z m715 -117 c-66 -66 -122 -120 -125 -120 -2 0 49 54
115 120 66 66 122 120 125 120 2 0 -49 -54 -115 -120z m935 117 c0 -1 -57 -58
-127 -127 l-128 -125 125 128 c116 118 130 132 130 124z m830 0 c0 -1 -30 -32
-67 -67 l-68 -65 65 68 c60 62 70 72 70 64z m820 0 c0 -1 -66 -67 -147 -147
l-148 -145 145 148 c134 137 150 152 150 144z m820 0 c0 -2 -10 -12 -22 -23
l-23 -19 19 23 c18 21 26 27 26 19z"/>
<path d="M10677 12745 c42 -21 85 -51 103 -73 18 -20 27 -27 21 -15 -15 30
-88 88 -135 107 -69 29 -63 16 11 -19z"/>
<path d="M10816 12617 c3 -10 9 -15 12 -12 3 3 0 11 -7 18 -10 9 -11 8 -5 -6z"/>
<path d="M70 9221 c0 -6 4 -13 10 -16 6 -3 7 1 4 9 -7 18 -14 21 -14 7z"/>
<path d="M99 9173 c26 -53 144 -120 228 -128 42 -4 39 -2 -24 14 -79 20 -142
55 -186 105 -19 21 -25 24 -18 9z"/>
<path d="M227 8266 c-38 -12 -76 -31 -85 -41 -13 -13 -13 -16 -2 -10 8 5 -7
-16 -34 -46 -27 -30 -51 -56 -53 -58 -2 -2 -3 -1 -3 3 0 3 19 27 43 53 23 25
35 44 27 41 -25 -8 -80 -87 -73 -105 5 -12 3 -14 -8 -8 -8 4 -11 5 -7 1 3 -4
-2 -26 -11 -49 -17 -39 -18 -140 -17 -1637 l2 -1596 29 -49 c43 -75 127 -150
219 -196 79 -40 80 -41 36 -34 -68 10 -164 60 -206 108 -20 23 -32 32 -26 21
18 -34 82 -85 142 -113 42 -19 77 -27 150 -31 52 -3 2372 -5 5155 -5 5458 0
5105 -3 5200 50 67 39 145 138 145 185 0 8 -11 -8 -23 -35 -22 -46 -26 -50
-58 -49 -26 1 -44 -8 -76 -36 -49 -43 -152 -100 -179 -99 -11 0 4 9 31 19 119
47 240 173 292 305 l27 70 2 1470 c2 1594 5 1522 -51 1637 -36 75 -102 154
-164 200 -59 43 -42 44 40 2 42 -21 81 -55 124 -109 12 -15 12 -11 -2 14 -33
63 -135 127 -223 142 -41 7 -6815 8 -6822 1 -4 -4 -44 -5 -88 -1 -108 9 -739
9 -744 0 -3 -4 -36 -4 -73 0 -119 13 -753 9 -753 -4 0 -8 -3 -8 -8 -2 -11 16
-800 19 -820 3 -9 -7 -13 -8 -10 -3 4 7 -161 11 -485 12 l-492 3 -68 -24z
m7663 1 c0 -1 -100 -101 -222 -222 l-223 -220 220 223 c204 206 225 227 225
219z m-3530 -222 c-107 -107 -197 -195 -200 -195 -3 0 83 88 190 195 107 107
197 195 200 195 3 0 -83 -88 -190 -195z m5970 182 c0 -1 -107 -108 -237 -237
l-238 -235 235 238 c218 220 240 242 240 234z m-8280 -10 c0 -1 -93 -94 -207
-207 l-208 -205 205 208 c190 192 210 212 210 204z m3310 0 c0 -1 -84 -85
-187 -187 l-188 -185 185 188 c172 174 190 192 190 184z m3250 -60 c0 -1 -73
-74 -162 -162 l-163 -160 160 163 c148 150 165 167 165 159z m-1670 -10 c0 -1
-71 -72 -157 -157 l-158 -155 155 158 c144 146 160 162 160 154z m-4160 -30
c0 -1 -66 -67 -147 -147 l-148 -145 145 148 c134 137 150 152 150 144z m-1670
-10 c0 -1 -206 -207 -457 -457 l-458 -455 455 458 c423 425 460 461 460 454z
m8150 -120 c0 -1 -30 -32 -67 -67 l-68 -65 65 68 c60 62 70 72 70 64z m-3310
-10 c0 -1 -33 -34 -72 -72 l-73 -70 70 73 c64 67 75 77 75 69z m-2520 -30 c0
-1 -24 -25 -52 -52 l-53 -50 50 53 c46 48 55 57 55 49z m7410 -40 c0 -1 -138
-139 -307 -307 l-308 -305 305 308 c283 285 310 312 310 304z m-10080 -980 c0
-1 -134 -135 -297 -297 l-298 -295 295 298 c274 276 300 302 300 294z m9700
-230 c0 -1 -359 -360 -797 -797 -438 -437 -756 -750 -707 -696 81 89 1491
1496 1500 1496 2 0 4 -1 4 -3z m-9130 -30 c0 -1 -296 -297 -657 -657 l-658
-655 655 658 c609 611 660 661 660 654z m80 -753 c-366 -366 -746 -742 -845
-836 -99 -95 196 205 655 665 459 460 839 837 845 837 5 0 -289 -300 -655
-666z m1410 593 c0 -1 -327 -328 -727 -727 l-728 -725 725 728 c399 400 726
727 727 727 2 0 3 -1 3 -3z m6610 -10 c0 -1 -334 -335 -742 -742 l-743 -740
740 743 c407 408 741 742 742 742 2 0 3 -1 3 -3z m-5850 -60 c0 -1 -314 -315
-697 -697 l-698 -695 695 698 c646 648 700 701 700 694z m4960 0 c0 -1 -312
-313 -692 -692 l-693 -690 690 693 c641 643 695 696 695 689z m-4180 -50 c0
-1 -282 -283 -627 -627 -345 -344 -596 -591 -559 -550 58 64 1176 1178 1184
1180 1 0 2 -1 2 -3z m2755 -558 c-308 -308 -587 -583 -620 -611 -33 -28 214
224 550 560 335 337 614 612 620 612 5 0 -242 -252 -550 -561z m-1955 538 c0
-1 -287 -288 -637 -637 l-638 -635 635 638 c590 592 640 641 640 634z m1660 0
c0 -1 -294 -295 -652 -652 l-653 -650 650 653 c604 606 655 656 655 649z
m-840 -10 c0 -1 -298 -299 -662 -662 l-663 -660 660 663 c613 615 665 666 665
659z m4549 -411 c-59 -62 -770 -773 -801 -801 -24 -22 146 150 377 383 231
232 422 422 424 422 2 0 2 -2 0 -4z m301 -529 c0 -1 -190 -191 -422 -422
l-423 -420 420 423 c390 392 425 426 425 419z m-1380 -550 c0 -1 -33 -34 -72
-72 l-73 -70 70 73 c64 67 75 77 75 69z m-8280 -10 c0 -1 -64 -65 -142 -142
l-143 -140 140 143 c130 132 145 147 145 139z m820 -10 c0 -1 -66 -67 -147
-147 l-148 -145 145 148 c134 137 150 152 150 144z m830 0 c0 -2 -19 -21 -42
-42 l-43 -40 40 43 c36 39 45 47 45 39z m750 -72 c-41 -41 -77 -75 -79 -75 -3
0 28 34 69 75 41 41 77 75 79 75 3 0 -28 -34 -69 -75z m755 -75 c-82 -82 -152
-150 -155 -150 -2 0 63 68 145 150 82 83 152 150 155 150 2 0 -63 -67 -145
-150z m860 30 c-66 -66 -122 -120 -125 -120 -2 0 49 54 115 120 66 66 122 120
125 120 2 0 -49 -54 -115 -120z m1765 117 c0 -1 -60 -61 -132 -132 l-133 -130
130 133 c120 123 135 137 135 129z m830 0 c0 -1 -73 -74 -162 -162 l-163 -160
160 163 c148 150 165 167 165 159z m830 0 c0 -1 -30 -32 -67 -67 l-68 -65 65
68 c60 62 70 72 70 64z"/>
<path d="M10852 4795 c0 -16 2 -22 5 -12 2 9 2 23 0 30 -3 6 -5 -1 -5 -18z"/>
<path d="M279 3740 c-95 -16 -192 -77 -226 -144 -12 -23 -2 -16 37 27 29 32
60 62 70 67 9 5 -15 -23 -55 -63 -39 -40 -72 -74 -72 -77 -1 -3 -7 -18 -14
-35 -10 -23 -13 -384 -14 -1615 -2 -1824 -14 -1621 106 -1742 68 -68 130 -106
228 -139 53 -18 198 -19 5037 -19 l4982 0 71 24 c84 28 151 69 205 125 22 22
44 37 49 34 6 -4 7 -1 3 6 -5 7 -1 20 7 29 9 10 30 48 48 86 25 54 34 89 40
160 4 50 7 714 7 1476 0 1127 -3 1396 -14 1445 -28 126 -109 243 -218 318
l-61 42 -3374 3 c-1856 1 -3378 -1 -3383 -6 -4 -4 -49 -5 -100 -1 -124 9 -717
9 -722 0 -3 -4 -46 -4 -98 0 -143 10 -717 8 -724 -2 -3 -5 -10 -6 -16 -3 -16
10 -796 15 -802 6 -2 -4 -49 -5 -103 -1 -139 9 -839 8 -894 -1z m5071 -33 c0
-1 -91 -92 -202 -202 l-203 -200 200 203 c186 188 205 207 205 199z m820 0 c0
-1 -93 -94 -207 -207 l-208 -205 205 208 c190 192 210 212 210 204z m780 -40
c0 -1 -84 -85 -187 -187 l-188 -185 185 188 c172 174 190 192 190 184z m-2480
-20 c0 -1 -78 -79 -172 -172 l-173 -170 170 173 c158 160 175 177 175 169z
m3085 -197 c-82 -82 -152 -150 -155 -150 -2 0 63 68 145 150 82 83 152 150
155 150 2 0 -63 -67 -145 -150z m2575 107 c0 -1 -78 -79 -172 -172 l-173 -170
170 173 c158 160 175 177 175 169z m-6590 -20 c0 -1 -53 -54 -117 -117 l-118
-115 115 118 c107 109 120 122 120 114z m-870 -50 c0 -1 -44 -45 -97 -97 l-98
-95 95 98 c88 90 100 102 100 94z m-1660 -10 c0 -1 -165 -166 -367 -367 l-368
-365 365 368 c339 341 370 371 370 364z m7380 -10 c0 -1 -39 -41 -87 -87 l-88
-85 85 88 c79 81 90 92 90 84z m790 -40 c0 -1 -26 -27 -57 -57 l-58 -55 55 58
c50 53 60 62 60 54z m-9130 -91 c0 -2 -8 -10 -17 -17 -16 -13 -17 -12 -4 4 13
16 21 21 21 13z m1615 -36 c-16 -17 -33 -30 -39 -30 -5 0 5 16 24 35 18 19 36
32 39 30 2 -3 -8 -19 -24 -35z m9015 -13 c0 -1 -118 -119 -262 -262 l-263
-260 260 263 c241 243 265 267 265 259z m90 -730 c0 -1 -458 -459 -1017 -1017
l-1018 -1015 1015 1018 c558 559 1016 1017 1017 1017 2 0 3 -1 3 -3z m-10041
-193 c-13 -14 -73 -71 -134 -127 l-110 -101 125 127 c69 70 129 127 134 127 5
0 -1 -12 -15 -26z m591 -227 c0 -1 -224 -225 -497 -497 -274 -272 -424 -418
-333 -325 469 483 830 841 830 822z m730 -90 c0 -1 -402 -403 -892 -892 l-893
-890 890 893 c489 490 891 892 892 892 2 0 3 -1 3 -3z m750 -70 c0 -1 -323
-324 -717 -717 l-718 -715 715 718 c393 394 716 717 717 717 2 0 3 -1 3 -3z
m6560 -10 c0 -1 -325 -326 -722 -722 l-723 -720 720 723 c396 397 721 722 722
722 2 0 3 -1 3 -3z m-5800 -50 c0 -1 -314 -315 -697 -697 l-698 -695 695 698
c646 648 700 701 700 694z m4920 -10 c0 -1 -305 -306 -677 -677 l-678 -675
675 678 c627 629 680 681 680 674z m-4150 -40 c0 -1 -303 -304 -672 -672
l-673 -670 670 673 c623 625 675 676 675 669z m3280 -10 c0 -1 -280 -281 -622
-622 -342 -341 -575 -569 -517 -506 84 92 1127 1130 1137 1131 1 0 2 -1 2 -3z
m-2490 -20 c0 -1 -291 -292 -647 -647 l-648 -645 645 648 c600 601 650 651
650 644z m1430 -214 c-452 -458 -895 -900 -939 -937 -25 -22 222 229 549 557
327 328 597 597 600 597 3 0 -92 -98 -210 -217z m-620 204 c0 -1 -280 -281
-622 -622 l-623 -620 620 623 c576 578 625 626 625 619z m4630 -300 c0 -1
-231 -232 -512 -512 l-513 -510 510 513 c474 476 515 516 515 509z m180 -640
c0 -1 -179 -180 -397 -397 l-398 -395 395 398 c367 369 400 401 400 394z
m-9570 -540 c0 -1 -66 -67 -147 -147 l-148 -145 145 148 c134 137 150 152 150
144z m8210 0 c0 -1 -71 -72 -157 -157 l-158 -155 155 158 c144 146 160 162
160 154z m-6725 -157 c-82 -82 -152 -150 -155 -150 -2 0 63 68 145 150 82 83
152 150 155 150 2 0 -63 -67 -145 -150z m850 30 c-66 -66 -122 -120 -125 -120
-2 0 49 54 115 120 66 66 122 120 125 120 2 0 -49 -54 -115 -120z m935 117 c0
-1 -37 -38 -82 -82 l-83 -80 80 83 c74 76 85 87 85 79z m4110 0 c0 -1 -66 -67
-147 -147 l-148 -145 145 148 c134 137 150 152 150 144z m-6580 -10 c0 -1 -66
-67 -147 -147 l-148 -145 145 148 c134 137 150 152 150 144z m4110 0 c0 -2
-17 -19 -37 -38 l-38 -34 34 38 c33 34 41 42 41 34z m820 0 c0 -1 -46 -47
-102 -102 l-103 -100 100 103 c93 95 105 107 105 99z m820 0 c0 -1 -64 -65
-142 -142 l-143 -140 140 143 c130 132 145 147 145 139z"/>
<path d="M10597 3701 c57 -29 91 -53 110 -79 40 -54 47 -61 29 -25 -19 37 -89
97 -137 117 -78 31 -79 25 -2 -13z"/>
<path d="M10773 290 c0 -25 2 -35 4 -22 2 12 2 32 0 45 -2 12 -4 2 -4 -23z"/>
<path d="M10751 205 c-12 -35 -50 -61 -75 -52 -6 2 -31 -12 -56 -33 -60 -49
-109 -77 -172 -101 l-53 -20 65 7 c36 3 89 14 118 25 54 18 142 81 142 101 0
6 -7 5 -17 -3 -16 -13 -17 -12 -4 3 7 10 17 15 22 13 10 -7 52 72 47 86 -2 6
-9 -6 -17 -26z"/>
<path d="M30 204 c0 -6 7 -19 16 -30 14 -18 14 -18 3 6 -14 31 -19 36 -19 24z"/>
<path d="M77 127 c43 -56 125 -103 195 -112 39 -5 38 -4 -17 13 -77 23 -98 35
-154 86 -31 28 -39 33 -24 13z"/>
</g>
</svg>
